# Blender 4.0.2
# www.blender.org
o mirror
v 0.019110 -0.248430 -0.681590
v 0.019110 0.248430 -0.681590
v 0.019110 0.248430 0.681590
v 0.019110 -0.248430 0.681590
v 0.000000 -0.318500 0.751660
v 0.000000 -0.318500 -0.751660
v 0.012740 -0.318500 -0.751660
v 0.012740 -0.318500 0.751660
v -0.000000 0.318500 -0.751660
v 0.012740 0.318500 -0.751660
v -0.000000 0.318500 0.751660
v 0.012740 0.318500 0.751660
v 0.019110 -0.267540 -0.700700
v 0.019110 -0.267540 0.700700
v 0.019110 0.267540 -0.700700
v 0.019110 0.267540 0.700700
v 0.015925 -0.267540 -0.700700
v 0.015925 -0.267540 0.700700
v 0.015925 0.267540 -0.700700
v 0.015925 0.267540 0.700700
s 1
f 1 2 3 4
s 0
f 5 6 7 8
f 6 9 10 7
f 9 11 12 10
f 11 5 8 12
f 8 7 13 14
f 7 10 15 13
f 10 12 16 15
f 12 8 14 16
f 14 13 17 18
f 13 15 19 17
f 15 16 20 19
f 16 14 18 20
f 18 17 1 4
f 17 19 2 1
f 19 20 3 2
f 20 18 4 3
f 6 5 11 9
